<svg width="32" height="32" viewBox="0 0 32 32" fill="none" xmlns="http://www.w3.org/2000/svg">
    <path d="M32 27.3173C32 29.9036 29.9141 32 27.3411 32H4.65885C2.08581 32 0 29.9036 0 27.3173V4.68275C0 2.09651 2.08581 0 4.65885 0H27.3411C29.9142 0 32 2.09651 32 4.68275V27.3173Z" fill="#FAAB62"/>
    <path d="M31.8356 27.2009C31.8356 29.7606 29.7711 31.8355 27.2246 31.8355H4.77525C2.22867 31.8355 0.164307 29.7606 0.164307 27.2009V4.79887C0.164307 2.23923 2.22875 0.164276 4.77525 0.164276H27.2246C29.7711 0.164276 31.8356 2.23931 31.8356 4.79887V27.2009Z" fill="#F7931E"/>
    <path d="M15.9822 4.7825C12.8108 4.7825 10.2399 7.36667 10.2399 10.5543C10.2399 13.742 12.8108 16.3264 15.9822 16.3264C19.1537 16.3264 21.7246 13.742 21.7246 10.5543C21.7246 7.36667 19.1537 4.7825 15.9822 4.7825ZM15.9822 12.9404C14.6713 12.9404 13.6085 11.8721 13.6085 10.5544C13.6085 9.2367 14.6713 8.16845 15.9822 8.16845C17.2932 8.16845 18.356 9.2367 18.356 10.5544C18.356 11.8721 17.2932 12.9404 15.9822 12.9404Z" fill="white"/>
    <path d="M18.0095 20.9191C20.3084 20.4484 21.686 19.3541 21.7589 19.2954C22.4316 18.7532 22.5397 17.7654 22.0002 17.0892C21.4608 16.4131 20.4782 16.3044 19.8053 16.8466C19.7911 16.8582 18.3218 17.9911 15.9042 17.9928C13.4868 17.9911 11.9864 16.8582 11.9722 16.8466C11.2993 16.3044 10.3167 16.4131 9.7773 17.0892C9.23781 17.7654 9.34587 18.7532 10.0186 19.2954C10.0925 19.355 11.5269 20.4777 13.8903 20.9374L10.5965 24.3973C9.99795 25.0212 10.0159 26.0147 10.6367 26.6164C10.9397 26.91 11.3302 27.0559 11.7204 27.0559C12.1295 27.0559 12.5381 26.8953 12.8445 26.5759L15.9043 23.2996L19.2733 26.5971C19.8837 27.2097 20.8721 27.2087 21.4813 26.5954C22.0906 25.982 22.0899 24.9883 21.4796 24.376L18.0095 20.9191Z" fill="white"/>
    <path d="M15.905 17.9926C15.8989 17.9926 15.911 17.9927 15.905 17.9928C15.899 17.9927 15.9111 17.9926 15.905 17.9926Z" fill="white"/>
</svg>
