<svg width="32" height="32" viewBox="0 0 32 32" fill="none" xmlns="http://www.w3.org/2000/svg">
    <path fill-rule="evenodd" clip-rule="evenodd" d="M11.0933 0H20.9067C29.8667 0 32 2.13333 32 11.0933V20.9067C32 29.8667 29.8667 32 20.9067 32H11.0933C2.13333 32 0 29.8667 0 20.9067V11.0933C0 2.13333 2.13333 0 11.0933 0Z" fill="#5181B8"/>
    <path fill-rule="evenodd" clip-rule="evenodd" d="M26.2057 11.0245C26.3539 10.53 26.2057 10.1667 25.5 10.1667H23.1667C22.5734 10.1667 22.2999 10.4806 22.1516 10.8266C22.1516 10.8266 20.965 13.7189 19.284 15.5976C18.7402 16.1414 18.493 16.3145 18.1963 16.3145C18.048 16.3145 17.8333 16.1414 17.8333 15.6471V11.0245C17.8333 10.4312 17.6612 10.1667 17.1667 10.1667H13.5C13.1293 10.1667 12.9063 10.4421 12.9063 10.7031C12.9063 11.2655 13.7467 11.3952 13.8334 12.9773V16.4134C13.8334 17.1667 13.6973 17.3033 13.4007 17.3033C12.6097 17.3033 10.6855 14.3982 9.54433 11.0739C9.32069 10.4277 9.09637 10.1667 8.50004 10.1667H6.16671C5.50004 10.1667 5.3667 10.4806 5.3667 10.8266C5.3667 11.4447 6.15775 14.51 9.04997 18.564C10.9781 21.3326 13.6947 22.8334 16.1667 22.8334C17.6499 22.8334 17.8334 22.5001 17.8334 21.9259V19.8334C17.8334 19.1667 17.9739 19.0337 18.4436 19.0337C18.7896 19.0337 19.3829 19.2067 20.7673 20.5416C22.3493 22.1237 22.6101 22.8334 23.5 22.8334H25.8334C26.5 22.8334 26.8334 22.5001 26.6411 21.8423C26.4307 21.1867 25.6753 20.2354 24.673 19.1079C24.1292 18.4651 23.3134 17.773 23.0662 17.4269C22.7201 16.982 22.819 16.7842 23.0662 16.3887C23.0662 16.3887 25.909 12.384 26.2057 11.0245Z" fill="white"/>
</svg>
