<svg width="46" height="33" viewBox="0 0 46 33" fill="none" xmlns="http://www.w3.org/2000/svg">
    <path d="M44.8987 5.05534C44.3776 3.0749 42.8141 1.51139 40.8336 0.964164C37.2636 1.86385e-07 22.9314 0 22.9314 0C22.9314 0 8.59929 1.86385e-07 5.00323 0.964164C3.02278 1.48533 1.48533 3.04884 0.938105 5.05534C1.24256e-07 8.65141 0 16.1563 0 16.1563C0 16.1563 -6.21282e-08 23.6611 0.964163 27.2572C1.48533 29.2376 3.04884 30.8011 5.02928 31.3483C8.59929 32.3125 22.9314 32.3125 22.9314 32.3125C22.9314 32.3125 37.2636 32.3125 40.8597 31.3483C42.8401 30.8272 44.3776 29.2637 44.9248 27.2572C45.8629 23.6611 45.8629 16.1563 45.8629 16.1563C45.8629 16.1563 45.8629 8.65141 44.8987 5.05534Z" fill="#FF0000"/>
    <path d="M18.241 22.9835L30.2279 16.1562L18.241 9.32886V22.9835Z" fill="white"/>
</svg>
